<svg version="1.2" baseProfile="tiny-ps" xmlns="http://www.w3.org/2000/svg" viewBox="0 0 1500 183" width="1500" height="183">
	<title>tesla-seeklogo</title>
	<style>
		tspan { white-space:pre }
		.s0 { fill: #142733 } 
	</style>
	<g id="Layer 1">
		<g id="text4313">
		</g>
		<g id="g439">
			<path id="path441" class="s0" d="m1281.29 73.15h162.37v97.92h-35.02v-61.82h-127.36v61.82h-34.98v-98.37h34.98v0.45zm-582.24 1.12h162.34v96.79h-197.31l0.63-1.53c3.85-15.53 17.46-27.61 36.01-34.65h125.69v-25.42h-162.33v-97.51h196.41c-3.91 15.76-17.69 29.76-36.64 35.11h-124.8v27.2zm467.52 60.52c-3.68 14.86-16.29 27.52-33.76 34.79v1.49h-160.35v-159.11h35.11v121.84l159.01 0.99zm73.49-123.63h208.85c-3.85 15.84-17.78 28.9-36.72 35.91h-135.45c-18.86-7.01-32.9-20.07-36.68-35.91zm-889.44 0h208.85c-3.95 15.84-17.78 28.9-36.72 35.91h-135.41c-18.94-7.01-32.9-20.07-36.72-35.91zm0 123.63h208.85c-3.95 15.76-17.78 29-36.72 35.96h-135.41c-18.94-6.96-32.9-20.2-36.72-35.96zm-315.34-122.83h228.83v0.4c-4 15.62-17.87 28.73-36.55 35.69h-56.97l-3.19 1.26v121.75h-35.56v-121.75l-2.92-1.26h-57.01c-18.77-6.96-32.55-20.07-36.64-35.69v-0.4zm315.34 61.69h208.85c-3.95 15.62-17.78 28.96-36.72 35.82h-135.41c-18.94-6.86-32.9-20.2-36.72-35.82z" />
		</g>
	</g>
</svg>